<svg xmlns="http://www.w3.org/2000/svg" xmlns:xlink="http://www.w3.org/1999/xlink" width="1080" zoomAndPan="magnify" viewBox="0 0 810 809.999993" height="1080" preserveAspectRatio="xMidYMid meet" version="1.0"><path fill="#be925a" d="M 756.792969 660.824219 C 756.792969 809.714844 599.238281 808.046875 404.902344 808.046875 C 210.566406 808.046875 53.015625 809.714844 53.015625 660.824219 C 53.015625 511.933594 305.460938 203.808594 401.066406 203.808594 C 523.464844 203.808594 756.792969 511.933594 756.792969 660.824219 " fill-opacity="1" fill-rule="nonzero"/><path fill="#be925a" d="M 351.378906 221.042969 C 351.699219 202.175781 339.863281 177.835938 330.660156 162.019531 C 318.148438 140.488281 301.445312 121.6875 287.511719 101.113281 C 273.582031 80.609375 249.058594 28.871094 296.433594 42.234375 C 313.597656 47.066406 333.679688 66.363281 351.734375 64.515625 C 364.457031 63.199219 373.273438 47.421875 379.847656 38.074219 C 390.582031 22.796875 417.980469 -10.757812 435.503906 16.117188 C 444.707031 30.1875 450.289062 45.113281 453.167969 61.386719 C 455.726562 75.886719 477.15625 73.824219 493.152344 71.726562 C 499.511719 70.910156 505.019531 70.058594 508.113281 70.304688 C 530.21875 71.761719 554.566406 81.039062 536.867188 105.984375 C 504.382812 151.894531 443.785156 191.089844 451.460938 217.847656 C 438.0625 248.441406 350.917969 244.925781 351.378906 221.042969 " fill-opacity="1" fill-rule="nonzero"/><path fill="#008037" d="M 403.910156 236.289062 C 372.84375 236.289062 347.363281 226.589844 345.726562 225.949219 C 341.78125 224.386719 339.828125 219.941406 341.355469 216.035156 C 342.921875 212.089844 347.328125 210.136719 351.273438 211.664062 C 352.019531 211.984375 408.316406 233.269531 451.320312 210.171875 C 455.050781 208.179688 459.707031 209.566406 461.695312 213.261719 C 463.6875 216.992188 462.300781 221.648438 458.570312 223.640625 C 440.765625 233.199219 421.429688 236.289062 403.90625 236.289062 " fill-opacity="1" fill-rule="nonzero"/><path fill="#008037" d="M 411.085938 664.980469 C 439.945312 660.648438 469.410156 646.574219 469.410156 622.800781 C 469.410156 602.617188 439.945312 587.160156 411.085938 576.359375 Z M 394.917969 398.753906 C 392.675781 398.292969 391.113281 398.042969 390.226562 398.042969 C 367.480469 398.042969 340.894531 409.273438 340.894531 433.507812 C 340.894531 450.707031 369.042969 465.347656 394.917969 475.652344 Z M 411.085938 397.40625 L 411.085938 481.730469 L 417.128906 484.179688 L 454.800781 499.210938 C 501.46875 518.507812 502.996094 549.921875 502.996094 593.414062 C 502.996094 621.378906 495.710938 647.285156 475.769531 665.230469 C 455.796875 683.175781 435.929688 688.753906 417.804688 689.179688 L 411.085938 689.179688 C 411.085938 699.128906 412.617188 710.324219 411.085938 720.097656 C 408.882812 733.8125 396.550781 726.917969 394.917969 715.902344 C 393.671875 707.375 394.917969 697.816406 394.917969 689.214844 C 394.917969 691.207031 348.960938 679.089844 344.519531 677.171875 C 331.441406 671.484375 319.355469 663.242188 310.898438 651.585938 C 302.6875 640.25 298.671875 626.675781 297.785156 612.816406 C 296.929688 600.09375 300.234375 568.042969 320.066406 571.597656 C 345.65625 576.214844 334.035156 617.257812 341.355469 633.996094 C 350.667969 655.316406 373.199219 663.203125 394.917969 664.980469 L 394.917969 570.316406 C 331.796875 549.527344 315.519531 515.378906 315.519531 467.796875 C 315.519531 410.410156 331.796875 378.996094 394.917969 373.632812 C 394.917969 366.027344 390.4375 332.871094 404.050781 336.53125 C 413.859375 339.164062 411.085938 364.605469 411.085938 372.28125 C 447.195312 372.28125 486.859375 381.945312 503.386719 417.515625 C 508.574219 428.710938 519.523438 458.3125 504.628906 465.167969 C 496.3125 468.972656 480.890625 464.601562 475.734375 457.527344 C 468.628906 447.757812 472.785156 433.648438 466.28125 422.953125 C 459.957031 412.542969 449.257812 406.609375 437.992188 402.875 C 435.894531 402.164062 411.085938 395.839844 411.085938 397.402344 " fill-opacity="1" fill-rule="nonzero"/><path fill="#dabd8d" d="M 429.710938 790.277344 L 408.671875 790.277344 C 454.945312 770.984375 495.175781 740.8125 522.046875 697.710938 C 567.714844 624.4375 556.378906 530.484375 534.484375 451.488281 C 523.039062 410.160156 506.515625 371.320312 483.484375 335.078125 C 462.125 301.496094 435.859375 271.183594 409.488281 241.476562 C 411.265625 241.265625 413.007812 241.121094 414.710938 241.121094 C 525.917969 241.121094 737.988281 521.136719 737.988281 656.488281 C 737.988281 788.855469 600.980469 790.277344 429.710938 790.277344 " fill-opacity="1" fill-rule="nonzero"/><path fill="#9d784a" d="M 74.625 676.316406 L 73.558594 676.246094 C 73.558594 676.246094 73.558594 674.257812 73.59375 670.5625 C 73.628906 668.675781 73.628906 666.402344 73.699219 663.703125 C 73.769531 661.003906 73.699219 657.875 74.125 654.429688 C 74.445312 650.945312 74.800781 647.109375 75.191406 642.914062 C 75.476562 638.722656 76.507812 634.28125 77.253906 629.484375 C 78.035156 624.683594 78.960938 619.570312 80.347656 614.308594 C 81.730469 609.050781 82.761719 603.328125 84.683594 597.679688 C 86.496094 591.957031 88.09375 585.917969 90.296875 579.839844 C 92.609375 573.835938 94.742188 567.472656 97.371094 561.183594 C 102.523438 548.464844 108.601562 535.316406 115.53125 522.097656 C 119.121094 515.558594 122.640625 508.804688 126.621094 502.234375 C 130.457031 495.585938 134.511719 488.976562 138.773438 482.402344 C 142.898438 475.792969 147.269531 469.21875 151.710938 462.683594 C 156.046875 456.074219 160.738281 449.640625 165.289062 443.171875 C 169.835938 436.671875 174.636719 430.34375 179.292969 423.984375 C 184.089844 417.730469 188.851562 411.441406 193.648438 405.328125 C 203.351562 393.105469 213.019531 381.199219 222.722656 369.972656 C 232.316406 358.636719 241.878906 347.941406 251.046875 337.917969 C 260.289062 327.933594 269.101562 318.625 277.417969 310.167969 C 310.542969 276.195312 334.355469 255.40625 334.355469 255.40625 L 335.066406 256.152344 C 335.066406 256.152344 312 277.722656 280.121094 312.691406 C 272.160156 321.429688 263.664062 331.027344 254.78125 341.257812 C 246 351.566406 236.691406 362.402344 227.484375 373.917969 C 218.136719 385.359375 208.824219 397.40625 199.476562 409.804688 C 194.859375 415.988281 190.308594 422.316406 185.6875 428.675781 C 181.246094 435.105469 176.625 441.46875 172.289062 448.042969 C 167.988281 454.582031 163.546875 461.046875 159.425781 467.726562 C 157.363281 471.03125 155.265625 474.335938 153.203125 477.640625 C 151.214844 480.984375 149.257812 484.324219 147.269531 487.628906 C 145.351562 490.96875 143.324219 494.238281 141.476562 497.578125 C 139.59375 500.917969 137.746094 504.222656 135.894531 507.527344 C 132.128906 514.066406 128.789062 520.746094 125.375 527.25 C 118.515625 540.21875 112.4375 553.011719 106.859375 565.199219 C 101.457031 577.460938 96.730469 589.257812 92.785156 600.273438 C 92.289062 601.660156 91.789062 603.007812 91.292969 604.359375 C 90.832031 605.746094 90.441406 607.058594 90.011719 608.410156 C 89.160156 611.074219 88.308594 613.667969 87.523438 616.226562 C 86.707031 618.785156 85.820312 621.238281 85.214844 623.691406 C 84.574219 626.144531 83.972656 628.523438 83.367188 630.796875 C 80.703125 640 79.316406 648.175781 77.824219 654.890625 C 77.078125 658.265625 76.757812 661.285156 76.367188 663.953125 C 76.011719 666.582031 75.726562 668.855469 75.441406 670.667969 C 74.910156 674.328125 74.625 676.316406 74.625 676.316406 " fill-opacity="1" fill-rule="nonzero"/><path fill="#dabd8d" d="M 410.875 216.53125 C 400.105469 216.53125 388.910156 214.71875 379.988281 211.949219 C 384.609375 212.871094 389.265625 213.40625 393.707031 213.617188 C 394.417969 213.652344 395.128906 213.652344 395.839844 213.652344 C 404.867188 213.652344 414.179688 211.167969 421.359375 206.011719 C 431.273438 198.835938 432.765625 187.074219 436.535156 176.519531 C 450.359375 138.25 528.335938 125.457031 524.425781 79.6875 C 533.453125 84.128906 545.003906 92.90625 529.617188 110.105469 C 497.914062 145.425781 459.101562 163.976562 447.871094 201.289062 C 442.71875 212.375 427.257812 216.53125 410.875 216.53125 " fill-opacity="1" fill-rule="nonzero"/><path fill="#9d784a" d="M 361.722656 71.761719 C 359.445312 71.761719 358.167969 71.371094 358.167969 71.371094 L 357.8125 70.695312 L 358.34375 70.304688 C 358.34375 70.304688 358.417969 70.339844 358.523438 70.339844 C 358.984375 70.339844 360.121094 70.269531 361.863281 69.84375 C 362.964844 69.523438 364.246094 69.132812 365.632812 68.386719 C 367.050781 67.710938 368.507812 66.71875 369.929688 65.472656 C 371.316406 64.195312 372.738281 62.738281 373.949219 60.925781 C 375.226562 59.183594 376.363281 57.195312 377.394531 55.027344 C 378.390625 52.894531 379.207031 50.546875 380.238281 47.988281 C 381.445312 45.253906 382.726562 42.765625 384.183594 40.207031 C 387.097656 35.234375 390.191406 30.222656 394.0625 26.386719 C 397.902344 22.582031 402.203125 19.8125 406.078125 17.820312 C 409.949219 15.902344 413.46875 14.730469 416.097656 14.339844 C 417.09375 14.195312 417.945312 14.125 418.621094 14.125 C 418.835938 14.125 419.085938 14.125 419.261719 14.160156 C 420.042969 14.195312 420.46875 14.339844 420.46875 14.339844 L 420.789062 15.050781 L 420.542969 15.367188 L 420.46875 15.40625 C 420.46875 15.441406 420.1875 15.546875 419.722656 15.9375 C 419.261719 16.328125 418.585938 16.933594 417.734375 17.75 C 416.0625 19.421875 413.71875 21.765625 411.015625 24.644531 C 409.703125 26.066406 408.242188 27.59375 406.714844 29.226562 C 405.1875 30.828125 403.589844 32.53125 401.882812 34.238281 C 398.542969 37.648438 394.523438 40.953125 391.398438 45.039062 C 389.835938 47.03125 388.339844 49.234375 387.132812 51.257812 C 385.851562 53.535156 384.539062 56.019531 382.902344 58.296875 C 381.375 60.535156 379.667969 62.628906 377.820312 64.335938 C 376.042969 66.148438 374.019531 67.535156 372.171875 68.671875 C 368.332031 70.945312 364.636719 71.65625 362.113281 71.761719 L 361.722656 71.761719 " fill-opacity="1" fill-rule="nonzero"/><path fill="#9d784a" d="M 355.964844 205.410156 L 355.5 205.019531 C 355.5 205.019531 354.683594 202.390625 353.015625 197.984375 C 351.308594 193.539062 348.820312 187.285156 345.410156 180.074219 C 344.625 178.226562 343.632812 176.414062 342.671875 174.496094 C 341.78125 172.539062 340.753906 170.550781 339.652344 168.558594 C 337.519531 164.542969 335.171875 160.386719 332.753906 156.050781 C 331.511719 153.882812 330.230469 151.714844 329.058594 149.441406 C 327.746094 147.238281 326.394531 145.035156 325.042969 142.761719 C 323.765625 140.488281 322.199219 138.355469 320.707031 136.152344 C 319.25 133.949219 317.722656 131.710938 316.085938 129.648438 L 311.253906 123.359375 C 309.476562 121.296875 307.699219 119.238281 305.957031 117.210938 C 304.109375 115.152344 302.511719 113.230469 300.804688 110.992188 C 299.132812 108.824219 297.394531 106.765625 295.828125 104.632812 C 294.441406 102.394531 293.09375 100.191406 291.777344 98.023438 C 291.136719 96.957031 290.460938 95.890625 289.824219 94.824219 C 289.289062 93.722656 288.757812 92.65625 288.222656 91.554688 C 287.191406 89.421875 286.160156 87.363281 285.167969 85.335938 C 284.277344 83.3125 283.496094 81.285156 282.679688 79.367188 C 281.042969 75.566406 279.835938 71.976562 278.734375 68.8125 C 277.5625 65.6875 276.851562 62.808594 276.140625 60.535156 C 274.824219 55.914062 274.257812 53.25 274.257812 53.25 L 274.648438 52.609375 L 275.25 52.929688 C 275.25 52.929688 276.140625 55.523438 277.917969 59.929688 C 278.875 62.097656 279.871094 64.832031 281.292969 67.820312 C 282.679688 70.804688 284.171875 74.214844 286.125 77.769531 C 287.085938 79.582031 288.011719 81.464844 289.113281 83.347656 C 290.25 85.195312 291.386719 87.113281 292.59375 89.105469 C 293.234375 90.097656 293.804688 91.09375 294.441406 92.089844 C 295.117188 93.046875 295.792969 94.007812 296.503906 95.003906 C 297.925781 96.957031 299.347656 98.910156 300.804688 100.9375 C 302.402344 102.820312 304.144531 104.632812 305.851562 106.515625 C 307.488281 108.363281 309.40625 110.390625 311.324219 112.238281 L 317.046875 117.957031 L 322.664062 124.210938 C 324.617188 126.273438 326.359375 128.441406 328.101562 130.609375 C 329.839844 132.8125 331.691406 134.871094 333.289062 137.113281 C 334.921875 139.351562 336.523438 141.554688 338.121094 143.757812 C 339.613281 145.996094 341 148.304688 342.386719 150.542969 C 344.945312 155.164062 347.292969 159.710938 348.996094 164.222656 C 350.917969 168.667969 352.304688 173.074219 353.40625 177.125 C 354.578125 181.175781 355.289062 185.011719 355.855469 188.386719 C 356.390625 191.765625 356.675781 194.75 356.78125 197.199219 C 356.996094 202.140625 356.566406 204.949219 356.566406 204.949219 L 355.964844 205.410156 " fill-opacity="1" fill-rule="nonzero"/></svg>